<svg width="184" height="243" viewBox="0 0 184 243" fill="none" xmlns="http://www.w3.org/2000/svg">
<circle cx="4" cy="4" r="4" transform="matrix(-0.96151 0.27477 0.27477 0.96151 7.69141 232.308)" fill="#49B486"/>
<circle cx="6" cy="6" r="6" transform="matrix(-0.96151 0.27477 0.27477 0.96151 31.5391 62)" fill="#232323"/>
<circle cx="8" cy="8" r="8" transform="matrix(-0.96151 0.27477 0.27477 0.96151 179.586 5.15527)" fill="#9288F8"/>
<g clip-path="url(#clip0_4804_5)">
<path d="M157.867 8.07703C151.901 4.36636 143.934 5.46439 137.949 8.58015C135.091 10.0772 132.482 12.4166 131.916 15.7346C131.647 17.3004 131.852 18.95 132.738 20.308C133.304 21.1709 134.314 22.0665 135.424 21.7822C136.925 21.4085 136.445 19.6635 135.369 19.095C133.401 18.0722 131.379 20.6336 130.547 22.0485C129.44 23.9285 128.909 26.0706 128.53 28.2102C128.439 28.7893 127.555 28.5523 127.645 27.9731C128.065 25.5212 128.748 23.0534 130.161 20.9968C131.155 19.5391 132.691 17.9896 134.614 18.0522C136.062 18.117 137.538 19.5253 137.214 21.0549C136.815 22.8659 134.561 22.9947 133.262 22.1296C129.977 19.9132 130.517 14.8426 132.509 11.9929C134.982 8.47469 139.41 6.66577 143.455 5.72395C148.387 4.61021 153.765 4.88751 158.07 7.72194C158.29 7.86701 158.092 8.202 157.867 8.07703Z" fill="#9288F8"/>
<path d="M131.749 25.6892C131.384 25.4407 130.414 26.409 130.188 26.6072C129.777 27.0143 129.442 27.4631 129.135 27.9629C128.901 28.3528 128.544 28.8821 128.012 28.6964C127.495 28.5362 127.382 27.7516 127.217 27.3197C126.842 26.2277 126.426 25.125 126.096 24.0238C125.939 23.4859 126.719 23.3071 126.908 23.8102C127.242 24.654 127.505 25.5219 127.794 26.375C127.86 26.6084 128.017 27.4695 128.248 27.5743C128.458 27.6738 128.586 27.2771 128.757 27.0426C129.361 26.2348 130.611 24.8672 131.74 24.9973C131.886 25.0149 131.996 25.0875 132.044 25.2297C132.074 25.2806 132.078 25.3463 132.107 25.3973C132.159 25.6052 131.913 25.798 131.749 25.6892Z" fill="#9288F8"/>
<path d="M158.451 7.34973C158.833 7.4521 158.899 8.00864 158.548 8.19461C158.476 8.21866 158.385 8.23732 158.33 8.20105C158.041 7.99421 157.864 7.68827 157.921 7.31558C157.908 7.20427 157.96 7.08901 158.072 7.07574C158.77 6.96126 159.075 7.75409 159.056 8.30919C159.061 8.61224 158.96 8.90845 158.69 9.03015C158.369 9.18129 158.04 8.96367 157.872 8.70334C157.532 8.20278 157.371 7.27603 158.068 7.01003C158.744 6.73864 159.209 7.57457 159.164 8.14439C159.109 8.75443 158.561 9.18956 157.963 9.00783C157.426 8.84225 157.083 8.19017 157.47 7.71194C157.873 7.17338 158.724 7.29374 158.91 7.96843C158.986 8.24743 158.92 8.57452 158.714 8.77809C158.498 9.02187 158.104 9.04554 157.902 8.75432C157.779 8.57048 157.712 8.33708 157.614 8.13851C157.552 7.97083 157.474 7.77765 157.522 7.59668C157.583 7.28969 157.864 7.12778 158.147 7.11739C158.47 7.11778 158.75 7.27902 158.886 7.57418C159.041 7.96054 158.934 8.36268 158.811 8.73932C158.753 8.87468 158.61 9.0086 158.429 8.96011C157.787 8.70189 157.4 7.97333 157.664 7.31124C157.721 7.17588 157.87 7.02186 158.046 7.09046C158.673 7.32318 158.776 8.14795 158.239 8.54287C157.917 8.77982 157.608 8.24443 157.93 8.00748C158.011 7.94322 158.005 7.72599 157.89 7.67356C158.017 7.59996 158.145 7.52636 158.272 7.45277C158.14 7.78381 158.239 8.21971 158.61 8.36229C158.483 8.43589 158.355 8.50948 158.253 8.56836C158.327 8.37268 158.569 7.79103 158.248 7.70482C158.107 7.66711 158.122 7.69261 158.14 7.78381C158.152 7.98093 158.285 8.21038 158.353 8.35796C158.382 8.40895 158.362 8.40356 158.313 8.34719C158.338 8.33247 158.344 8.31236 158.354 8.27215C158.356 8.18633 158.372 8.12601 158.328 8.04953C158.26 7.90195 158.088 7.89906 157.955 7.99276C157.715 8.16545 157.928 8.41645 158.129 8.47033C158.41 8.54575 158.597 8.25098 158.581 7.98815C158.599 7.84201 158.536 7.67433 158.432 7.58168C158.272 7.45277 158.154 7.57196 158.131 7.73821C158.108 7.90445 158.2 8.12312 158.269 8.2707C158.317 8.41289 158.469 8.64773 158.514 8.40106C158.558 8.15439 158.473 7.50664 158.139 7.54647C158.221 7.4822 158.303 7.41794 158.38 7.37378C158.351 7.56013 158.434 7.73321 158.594 7.86212C158.493 7.83518 158.407 7.83374 158.327 7.81219C158.372 7.80286 158.378 7.78275 158.348 7.73176C158.112 7.647 158.189 7.27969 158.451 7.34973Z" fill="#9288F8"/>
</g>
<defs>
<clipPath id="clip0_4804_5">
<rect width="27.8936" height="28.872" fill="white" transform="matrix(-0.965926 -0.258819 -0.258819 0.965926 159.414 7.21973)"/>
</clipPath>
</defs>
</svg>
