<svg width="166" height="216" viewBox="0 0 166 216" fill="none" xmlns="http://www.w3.org/2000/svg">
<circle cx="131.124" cy="207.89" r="6" transform="rotate(15.9483 131.124 207.89)" fill="#232323"/>
<circle cx="155.494" cy="72.4938" r="8" transform="rotate(15.9483 155.494 72.4938)" fill="#9288F8"/>
<circle cx="5.59462" cy="5.18926" r="4" transform="rotate(15.9483 5.59462 5.18926)" fill="#49B486"/>
<g clip-path="url(#clip0_4804_7)">
<path d="M131.224 193.442C136.353 188.639 137.354 180.66 135.894 174.072C135.187 170.925 133.603 167.798 130.545 166.393C129.102 165.728 127.455 165.499 125.914 166.003C124.934 166.327 123.808 167.071 123.795 168.217C123.767 169.763 125.577 169.751 126.405 168.859C127.902 167.223 125.951 164.607 124.8 163.437C123.271 161.881 121.339 160.814 119.37 159.894C118.834 159.656 119.292 158.863 119.828 159.101C122.088 160.141 124.295 161.439 125.916 163.336C127.067 164.674 128.166 166.558 127.608 168.399C127.17 169.781 125.428 170.842 124.034 170.134C122.388 169.28 122.847 167.069 124.019 166.039C127.01 163.439 131.768 165.273 134.005 167.935C136.764 171.234 137.365 175.979 137.227 180.131C137.027 185.182 135.367 190.305 131.515 193.73C131.318 193.905 131.046 193.627 131.224 193.442Z" fill="#232323"/>
<path d="M120.972 163.655C121.307 163.367 120.623 162.179 120.49 161.91C120.203 161.408 119.856 160.967 119.453 160.542C119.136 160.215 118.718 159.733 119.035 159.267C119.323 158.809 120.111 158.903 120.57 158.856C121.722 158.776 122.895 158.66 124.044 158.626C124.604 158.613 124.575 159.413 124.04 159.465C123.139 159.57 122.232 159.599 121.334 159.657C121.091 159.661 120.218 159.59 120.058 159.786C119.907 159.963 120.257 160.189 120.439 160.415C121.063 161.208 122.061 162.769 121.643 163.826C121.588 163.962 121.49 164.05 121.34 164.059C121.283 164.075 121.218 164.061 121.162 164.077C120.947 164.073 120.825 163.786 120.972 163.655Z" fill="#232323"/>
<path d="M131.778 194.193C131.58 194.536 131.025 194.456 130.937 194.068C130.932 193.993 130.937 193.9 130.987 193.857C131.261 193.631 131.603 193.539 131.948 193.691C132.059 193.707 132.157 193.787 132.141 193.898C132.07 194.602 131.226 194.692 130.694 194.529C130.4 194.456 130.14 194.281 130.093 193.99C130.03 193.641 130.325 193.379 130.62 193.284C131.191 193.086 132.128 193.17 132.205 193.911C132.292 194.634 131.364 194.868 130.825 194.677C130.251 194.465 129.972 193.824 130.302 193.293C130.601 192.817 131.32 192.655 131.682 193.152C132.098 193.681 131.761 194.472 131.061 194.477C130.772 194.478 130.473 194.329 130.33 194.078C130.15 193.806 130.23 193.42 130.563 193.3C130.773 193.228 131.015 193.224 131.232 193.181C131.411 193.164 131.617 193.139 131.78 193.233C132.06 193.371 132.144 193.684 132.081 193.96C131.997 194.272 131.769 194.5 131.448 194.556C131.035 194.606 130.674 194.397 130.342 194.182C130.227 194.091 130.134 193.917 130.228 193.755C130.644 193.202 131.447 193.017 132.019 193.443C132.134 193.534 132.245 193.718 132.133 193.87C131.746 194.415 130.923 194.3 130.68 193.68C130.535 193.307 131.132 193.147 131.277 193.52C131.318 193.615 131.53 193.665 131.61 193.568C131.648 193.71 131.686 193.852 131.724 193.994C131.439 193.781 130.992 193.764 130.758 194.085C130.72 193.943 130.682 193.801 130.652 193.687C130.822 193.809 131.321 194.194 131.487 193.905C131.56 193.779 131.532 193.787 131.439 193.781C131.245 193.742 130.989 193.81 130.829 193.838C130.772 193.853 130.783 193.835 130.85 193.802C130.858 193.83 130.876 193.841 130.912 193.861C130.994 193.885 131.048 193.916 131.134 193.893C131.294 193.866 131.341 193.701 131.285 193.548C131.18 193.271 130.883 193.412 130.779 193.592C130.633 193.845 130.869 194.101 131.127 194.154C131.264 194.209 131.442 194.192 131.559 194.115C131.724 193.994 131.64 193.849 131.485 193.784C131.331 193.719 131.096 193.751 130.935 193.779C130.786 193.789 130.519 193.875 130.746 193.982C130.973 194.089 131.62 194.174 131.668 193.842C131.709 193.937 131.75 194.033 131.773 194.118C131.6 194.043 131.412 194.078 131.246 194.199C131.298 194.108 131.322 194.026 131.363 193.954C131.36 194 131.378 194.011 131.435 193.995C131.578 193.79 131.913 193.959 131.778 194.193Z" fill="#232323"/>
</g>
<defs>
<clipPath id="clip0_4804_7">
<rect width="27.8936" height="28.872" fill="white" transform="matrix(0.5 -0.866025 -0.866025 -0.5 131.656 195.156)"/>
</clipPath>
</defs>
</svg>
