<?xml version="1.0" encoding="utf-8"?>
<svg xmlns="http://www.w3.org/2000/svg" viewBox="0 0 48 48" width="96" height="96">
  <path fill="#ffcc80" d="M1.431,17.787l2.76,9.201c0.072,0.241,0.204,0.461,0.382,0.64L14,37.055L13.955,42h9l-0.334-7.101l-0.395-2.766c-0.093-0.653-0.396-1.258-0.862-1.724l-0.359-0.359L14,23.045c-0.893-0.893-2.34-0.893-3.233,0c-0.893,0.893-0.893,2.34,0,3.233l-2.694-2.694l-2.631-7.142c-0.533-1.446-2.384-1.852-3.473-0.763L1.96,15.688C1.411,16.237,1.207,17.043,1.431,17.787z" />
  <path fill="#f2a25a" d="M13.461,28.972c1.078,1.078,2.694,2.694,2.694,2.694l-1.078,1.078l-4.311-6.466L13.461,28.972z" />
  <path fill="#ffcc80" d="M45.994,15.688l-0.009-0.009c-1.089-1.089-2.94-0.683-3.473,0.763l-2.631,7.142l-2.694,2.694c0.893-0.893,0.893-2.34,0-3.233c-0.893-0.893-2.34-0.893-3.233,0L26.95,30.05l-0.359,0.359c-0.466,0.466-0.769,1.072-0.862,1.724l-0.395,2.766L25,42h9l-0.045-4.945l9.427-9.427c0.178-0.178,0.31-0.398,0.382-0.64l2.76-9.201C46.747,17.043,46.543,16.237,45.994,15.688z" />
  <path fill="#f2a25a" d="M37.188,26.278l-4.311,6.466l-1.078-1.078c0,0,1.616-1.616,2.694-2.694L37.188,26.278z" />
  <path fill="#ffc107" d="M32.7,5.936c-4.953,0-9.719,6.346-9.92,6.616l0.077,0.061c-1.138,1.54-4.605,5.374-7.556,5.374 c-2.416,0-4.38-2.027-4.38-4.519c0-2.442,1.924-4.469,4.288-4.518l-0.059-3.013C11.207,6.02,8,9.399,8,13.468 C8,17.621,11.275,21,15.3,21c4.967,0,9.436-5.949,9.929-6.628l-0.076-0.059c1.187-1.56,4.694-5.364,7.546-5.364 c2.416,0,4.38,2.027,4.38,4.519s-1.965,4.519-4.38,4.519V21c4.025,0,7.3-3.379,7.3-7.532S36.725,5.936,32.7,5.936z" />
  <path fill="#ffc107" d="M32.7,21c-4.967,0-9.435-5.949-9.929-6.628l-0.851-1.17c-1.595-1.777-4.323-4.253-6.62-4.253 L15.204,8.95l-0.051-3.013L15.3,5.936c4.837,0,9.412,5.936,9.917,6.612l1.116,1.492c1.591,1.739,4.128,3.947,6.367,3.947V21z" />
  <path fill="#ff9800" d="M24,15.882c-0.656-0.741-1.094-1.326-1.229-1.51l-0.631-0.868c-0.553,0.647-1.279,1.412-2.102,2.13 l0.397,0.545c0.24,0.33,0.744,0.993,1.461,1.8C22.732,17.252,23.444,16.512,24,15.882z M25.217,12.548l0.661,0.883 c0.298-0.342,0.64-0.714,1.022-1.098l-0.528-0.706c-0.223-0.298-0.686-0.895-1.337-1.62c-0.388,0.383-0.734,0.746-1.033,1.078 C24.649,11.805,25.082,12.368,25.217,12.548z" />
</svg>