<svg xmlns="http://www.w3.org/2000/svg" viewBox="0 0 48 48"><path fill="#c77600" d="M24.4,19.378l-4.7,1.8c-2.8,1.1-5.9,0.4-7.9-1.8l0,0c-0.4-0.4-0.3-1.1,0.3-1.4l13.3-6.5c1.6-0.8,3.5-0.6,4.9,0.4l0.4,0.3c1.1,0.8,2.6,1,3.9,0.7L45,11v16l-9.9,1.478l-0.8,0.8L24.4,19.378z"/><path fill="#a5d6a7" d="M23.056,20.541l10.232-9.051L43.5,23.035l-10.232,9.051L23.056,20.541z"/><polygon fill="#388e3c" points="33.399,11 22.861,20.321 24.187,21.819 33.335,13.727 41.286,22.715 32.137,30.808 33.462,32.306 44,22.984"/><circle cx="34.505" cy="20.702" r="1.5" fill="#388e3c"/><circle cx="28.667" cy="25.875" r="4.5" fill="#388e3c"/><path fill="#388e3c" d="M41.021,20.824c-0.419,0.032-0.831,0.189-1.17,0.489c-0.828,0.732-0.905,1.996-0.173,2.823c0.3,0.339,0.69,0.545,1.102,0.628l2.09-1.849L41.021,20.824z"/><path fill="#388e3c" d="M34.551,15.321c0.339-0.299,0.544-0.69,0.628-1.101l-1.849-2.091l-2.091,1.849c0.033,0.419,0.189,0.831,0.489,1.17C32.46,15.976,33.724,16.053,34.551,15.321z"/><path fill="#ffb74d" d="M35.8,31.678l-13.3-13.3l2.5-1.9l-2-2H9.5L3,12v16l3.9,1.478l14,14.2c0.8,0.8,2,0.8,2.8,0l0,0c0.8-0.8,0.8-2,0-2.8l-0.1-0.1l0,0l0,0l0,0l0,0c-0.2-0.2-0.2-0.5,0-0.7s0.5-0.2,0.7,0l0,0l0,0l0,0l0,0l0.8,0.8c0.8,0.8,2,0.8,2.8,0l0,0c0.8-0.8,0.8-2,0-2.8l-0.3-0.3l0,0c-0.2-0.2-0.2-0.5,0-0.7s0.5-0.2,0.7,0l0,0l1,1c0.8,0.8,2,0.8,2.8,0l0,0c0.8-0.8,0.8-2,0-2.8l-0.3-0.3c-0.2-0.2-0.2-0.5,0-0.7s0.5-0.2,0.7,0l0,0l0.3,0.3c0.8,0.8,2,0.8,2.8,0l0,0C36.6,33.778,36.6,32.478,35.8,31.678z"/><path fill="#c77600" d="M16,40.478L16,40.478c0.8,0.8,2,0.8,2.8,0l0.7-0.7c0.8-0.8,0.8-2,0-2.8l0,0c-0.8-0.8-2-0.8-2.8,0l-0.7,0.7C15.2,38.478,15.2,39.678,16,40.478z"/><path fill="#c77600" d="M13.1,37.678L13.1,37.678c0.8,0.8,2,0.8,2.8,0l0.7-0.7c0.8-0.8,0.8-2,0-2.8l0,0c-0.8-0.8-2-0.8-2.8,0l-0.7,0.7C12.4,35.578,12.4,36.878,13.1,37.678z"/><path fill="#c77600" d="M10.3,34.878L10.3,34.878c0.8,0.8,2,0.8,2.8,0l0.7-0.7c0.8-0.8,0.8-2,0-2.8l0,0c-0.8-0.8-2-0.8-2.8,0l-0.7,0.7C9.5,32.778,9.5,34.078,10.3,34.878z"/><path fill="#c77600" d="M7.5,31.978L7.5,31.978c0.8,0.8,2,0.8,2.8,0l0.7-0.7c0.8-0.8,0.8-2,0-2.8l0,0c-0.8-0.8-2-0.8-2.8,0l-0.7,0.7C6.7,29.978,6.7,31.178,7.5,31.978z"/><path fill="#ebae55" d="M18.5,39.378l-1.5-1.4l0.4-0.4c0.4-0.4,0.9-0.4,1.3,0l0.1,0.1c0.4,0.4,0.4,0.9,0,1.3L18.5,39.378z M15.6,36.578l-1.4-1.4l0.4-0.4c0.4-0.4,0.9-0.4,1.3,0l0.1,0.1c0.4,0.4,0.4,0.9,0,1.3L15.6,36.578z M12.8,33.778l-1.4-1.4l0.4-0.4 c0.4-0.4,0.9-0.4,1.3,0l0.1,0.1c0.4,0.4,0.4,0.9,0,1.3L12.8,33.778z M10,30.978l-1.4-1.5l0.4-0.4c0.4-0.4,0.9-0.4,1.3,0l0.1,0.1 c0.4,0.4,0.4,0.9,0,1.3L10,30.978z"/><path fill="#c77600" d="M24,19l5.538-4.584c0.939-1.072,1.53-1.97,1.162-2.237l-0.4-0.3c-1.4-1-3.3-1.2-4.9-0.4l-13.3,6.5c-0.6,0.3-0.7,1-0.3,1.4c2,2.2,5.1,2.9,7.9,1.8L24,19z"/></svg>