<?xml version="1.0" encoding="utf-8"?>
<svg xmlns="http://www.w3.org/2000/svg" viewBox="0 0 48 48" width="96" height="96">
  <path fill="#78909c" d="M40,44H8c-2.209,0-4-1.791-4-4V19.083c0-1.306,0.637-2.528,1.706-3.276L24,3l18.294,12.807C43.363,16.555,44,17.777,44,19.083V40C44,42.209,42.209,44,40,44" />
  <path fill="#ffebee" d="M12,14h24v22H12V14z" />
  <path fill="#cfd8dc" d="M40,44H8c-2.209,0-4-1.791-4-4V20l20,13l20-13v20C44,42.209,42.209,44,40,44" />
  <path fill="#ff4081" d="M21,18.031c-1.657,0-3,1.343-3,3s1.343,3,3,3s3-1.343,3-3S22.657,18.031,21,18.031z" />
  <path fill="#ff4081" d="M27,18.031c-1.657,0-3,1.343-3,3s1.343,3,3,3s3-1.343,3-3S28.657,18.031,27,18.031z" />
  <path fill="#ff4081" d="M24,27.938l5.121-4.785l-5.074-2.121l-5.179,2.111L24,27.938z" />
</svg>