<?xml version="1.0" encoding="utf-8"?>
<svg xmlns="http://www.w3.org/2000/svg" viewBox="0 0 48 48" width="96" height="96">
  <path fill="#ff9800" d="M38,43H10c-1.1,0-2-0.9-2-2V23h32v18C40,42.1,39.1,43,38,43z" />
  <path fill="#ab5600" d="M27,34h-7c-0.828,0-1.5-0.672-1.5-1.5S19.172,31,20,31h7c0.828,0,1.5,0.672,1.5,1.5S27.828,34,27,34" />
  <polygon fill="#f57c00" points="8,23 12,18 36,18 40,23" />
  <polygon fill="#e65100" points="36,18 40,23 35.793,23.016" />
  <path fill="#455a64" d="M27.498,27c-0.74,0-1.385-0.548-1.485-1.302c-0.109-0.82,0.467-1.574,1.287-1.685l0,0 c1.755-0.239,6.572-1.471,7.764-4.264c0.7-1.642,0.103-3.783-1.776-6.368c-0.487-0.67-0.339-1.607,0.331-2.095 c0.668-0.488,1.608-0.341,2.095,0.331c2.547,3.501,3.255,6.636,2.106,9.317c-2.111,4.93-9.795,6.008-10.121,6.052 C27.631,26.996,27.564,27,27.498,27z" />
  <path fill="#455a64" d="M22.5,14L22.5,14c-4.694,0-8.5,3.806-8.5,8.5V28h17v-5.5C31,17.806,27.194,14,22.5,14z" />
  <path fill="#37474f" d="M22.5,14c-2.871,0-5.404,1.427-6.943,3.606C17.096,19.657,19.629,21,22.5,21 s5.404-1.343,6.943-3.394C27.904,15.427,25.371,14,22.5,14z" />
  <path fill="#37474f" d="M16.28,4l4,3l-3,5C17.28,12,15.28,7,16.28,4z M29,4l-4,3l3,5C28,12,30,7,29,4z" />
  <path fill="#455a64" d="M22.5,6C18.91,6,16,8.91,16,12.5s2.91,6.5,6.5,6.5s6.5-2.91,6.5-6.5S26.09,6,22.5,6z" />
  <path fill="#263238" d="M23,15c0,0-0.542,0.75-1,0l-1-0.999v-1L24.001,13v1L23,15z" />
  <path fill="#ffeb3b" d="M27,10c0,0,0.292,2.999-1.5,2.999c-0.827,0-1.499,0.001-1.499,0.001s-0.334-3,1.499-3 C26.328,10,27,10,27,10z M18,10.001c0,0-0.374,2.999,1.5,2.999c0.828,0,1.5,0.001,1.5,0.001S21.376,10,19.5,10 C18.672,10,18,10.001,18,10.001z" />
  <path fill="#455a64" d="M18,22h-4v0c0,1.973,0.459,3.919,1.342,5.683l0.19,0.38C15.819,28.637,16.405,29,17.047,29h0 c1.031,0,1.823-0.913,1.677-1.933L18,22z" />
  <path fill="#455a64" d="M26.981,22h4v0c0,1.973-0.459,3.919-1.342,5.683l-0.19,0.38C29.162,28.637,28.576,29,27.934,29h0 c-1.031,0-1.823-0.913-1.677-1.933L26.981,22z" />
  <polygon fill="#e65100" points="12,18 12,23 8,23.016" />
  <path fill="#ffcc80" d="M8,23.016l-2.121,6.351C5.447,30.662,6.411,32,7.776,32h32.449c1.365,0,2.329-1.337,1.897-2.632 L40,23L8,23.016z" />
</svg>