<svg xmlns="http://www.w3.org/2000/svg" viewBox="0 0 48 48"><path fill="#E39D36" d="M32.4,28.1l-13.2,7.8l3.1,4L35,32.3c1.1-0.7,1.5-2.2,0.8-3.3l0,0C35.1,27.8,33.6,27.4,32.4,28.1z"/><path fill="#EDA740" d="M36,28.5l-13.2,7.8l3.1,4l12.6-7.6c1.1-0.7,1.5-2.2,0.8-3.3l0,0C38.6,28.3,37.1,27.9,36,28.5z"/><path fill="#FFB74D" d="M38.9,29.4l-12.4,7.3l0,0l-5.9-3.4l2.9,1.6c1.3,0.7,2.9,0.5,3.9-0.6c1.3-1.5,0.9-3.8-0.8-4.7l-12.4-6.8c-1.1-0.6-2.5-0.6-3.7,0L5,26.1c0,0,0,0,0,0.1v10.7l4-2.5l15.1,8.2c1.2,0.6,2.6,0.6,3.8-0.1l13.8-8.3c1.3-0.8,1.7-2.4,0.9-3.7l0,0C41.9,29.1,40.2,28.7,38.9,29.4z"/><path fill="#EDA740" d="M26.5,36.8L26.5,36.8l-1.3-0.9l-10.7-6l8,6.6C23.7,37.4,25.2,37.5,26.5,36.8z"/><path fill="#FFCC80" d="M24.4,34.2c-0.9-0.5-0.6-1.3-0.1-2.2c0.5-0.9,0.9-1.6,1.8-1.1s1.3,1.6,0.8,2.5C26.5,34.3,25.4,34.6,24.4,34.2z"/><path fill="#FF3D00" d="M36.5,15.1c0.9-1.1,1.5-2.5,1.5-4C38,7.8,35.2,5,31.7,5C29.2,5,27,6.4,26,8.6C25,6.4,22.8,5,20.3,5C16.8,5,14,7.8,14,11.2c0,1.6,0.6,3,1.6,4.1l0,0l0,0C20.9,21.4,26,25,26,25S31.3,21.5,36.5,15.1L36.5,15.1L36.5,15.1z"/></svg>