<svg version="1.2" xmlns="http://www.w3.org/2000/svg" viewBox="0 0 1080 1080" width="1080" height="1080">
	<title>New Project</title>
	<defs>
		<linearGradient id="g1" x2="1" gradientUnits="userSpaceOnUse" gradientTransform="matrix(0,-735.977,551.59,0,13.585,968.226)">
			<stop offset="0" stop-color="#44bb8d"/>
			<stop offset="1" stop-color="#1e96cb"/>
		</linearGradient>
		<linearGradient id="g2" x2="1" gradientUnits="userSpaceOnUse" gradientTransform="matrix(0,576.908,-303.662,0,1364.146,402.086)">
			<stop offset="0" stop-color="#44bb8d"/>
			<stop offset="1" stop-color="#1e96cb"/>
		</linearGradient>
	</defs>
	<style>
		.s0 { fill: url(#g1) } 
		.s1 { fill: url(#g2) } 
	</style>
	<g id="&lt;Group&gt;">
		<path id="&lt;Path&gt;" class="s0" d="m1026.8 815.3c0.1 8.1-4.1 15.6-11.1 19.7l-22.9 13.6-19.9 11.8c-15.1 9-34.2-1.9-34.2-19.4v-504.1c0-8.2-4.4-15.7-11.6-19.7l-23.1-13-42.8-24-57.4-32.2-42.1-23.6-24.6-13.8c-7-3.9-15.6-3.8-22.6 0.3l-30.2 18-1.8 1.1c-15 8.9-14.7 30.6 0.5 39.2l1.3 0.7 42.6 23.8 34.8 19.6 65.4 36.6 22.6 12.7c7.1 4 11.5 11.6 11.5 19.7v531.6c0 8-4.2 15.4-11 19.5l-33.1 19.6-21.2 12.6c-15.1 8.9-34.2-1.9-34.2-19.5v-505.5c0-8.2-4.4-15.8-11.5-19.8l-21.8-12.2-44.1-24.7-56.1-31.5-43.4-24.3-23.3-13.1c-7.1-3.9-15.7-3.8-22.6 0.3l-31.6 18.8-0.5 0.2c-14.9 8.9-14.7 30.7 0.5 39.2l43.9 24.7 33.6 18.8 66.5 37.3 21.4 12c7.2 4 11.6 11.5 11.6 19.7v533c0 8-4.2 15.4-11.1 19.5l-27.3 16.2-26.9 16c-15.1 9-34.2-1.9-34.2-19.5v-506.9c0-8.2-4.4-15.7-11.5-19.7l-20.7-11.7-45.3-25.3-54.9-30.8-44.6-25.1-33.5-18.7-43.9-24.6-20.9-11.8c-15.2-8.5-15.5-30.2-0.5-39.1l21.4-12.7 43.7-26 33.7-20 43.3-25.7 56.2-33.4 42.5-25.2 35-20.8 42-24.9 57.5-34.2 16.8-10c6.9-4.1 15.5-4.2 22.6-0.3l38 21.4 49.6 27.7 49.9 28.1 28.1 15.8 49.4 27.6 50.8 28.6 19.1 10.7c7 3.9 11.5 11.3 11.6 19.4l0.5 41.4 0.5 45 0.9 69.9 0.2 19.6 0.9 69.9 0.6 44.9 0.9 69.9 0.2 19.6 0.8 69.9 0.6 44.9z"/>
		<path id="&lt;Path&gt;" class="s1" d="m614.7 43.2c10.2 5.8 10.4 20.4 0.3 26.4l-30.2 17.9-32.6 19.4-44.9 26.7-32.1 19-67.4 40.1-31.3 18.5-46.1 27.4-30.8 18.4-67.5 40-31.3 18.7-35.4 21c-4.6 2.7-7.4 7.7-7.4 13v422.4c0 5.5 3 10.5 7.8 13.2l41.1 23.1 2.5 1.4c10.1 5.7 22.7-1.6 22.7-13.3v-348.5c0-11.6 12.5-18.9 22.6-13.3l42.7 24 25.2 14.1c4.8 2.7 7.8 7.8 7.8 13.3v382.6c0 5.5 2.9 10.6 7.7 13.3l47.1 26.4c10.1 5.7 22.6-1.7 22.6-13.3v-348.5c0-11.6 12.5-18.9 22.7-13.3l45.2 25.3 23.9 13.5c4.8 2.7 7.7 7.7 7.7 13.2v479.5c0 11.6-12.5 18.9-22.6 13.2l-19.9-11.1-57-31.9-21.1-11.9-56.3-31.6-43.8-24.5-54.5-30.7-23.5-13.1-50.6-28.4-49.6-27.9-39.9-22.3c-4.7-2.7-7.7-7.6-7.8-13.1l-0.3-26.1-1-79.8-0.4-35.1-0.7-50.2-0.4-39.3-1-74.3-0.5-39.2-0.6-50.3-0.4-35.2-1.4-110.7c-0.1-5.4 2.8-10.5 7.4-13.3l96.6-57.3 37.3-22.1 36.8-21.9 40.2-23.9 58.1-34.5 40.6-24.2 36.8-21.8 40.2-23.8 59.3-35.3 18.7-11.1c4.6-2.7 10.4-2.8 15.2-0.2l43.6 24.5z"/>
	</g>
</svg>